  0
SECTION
  2
BLOCKS
  0
ENDSEC
  0
SECTION
  2
ENTITIES
  0
LINE
  8
0
 10
30
 20
0
 11
29.9936
 21
0.359985
  0
LINE
  8
0
 10
29.9936
 20
0.359985
 11
29.9746
 21
0.899994
  0
LINE
  8
0
 10
29.9746
 20
0.899994
 11
29.9388
 21
1.62
  0
LINE
  8
0
 10
29.9388
 20
1.62
 11
29.8815
 21
2.51999
  0
LINE
  8
0
 10
29.8815
 20
2.51999
 11
29.798
 21
3.59999
  0
LINE
  8
0
 10
29.798
 20
3.59999
 11
29.7013
 21
4.67999
  0
LINE
  8
0
 10
29.7013
 20
4.67999
 11
29.5738
 21
5.93999
  0
LINE
  8
0
 10
29.5738
 20
5.93999
 11
29.4112
 21
7.37999
  0
LINE
  8
0
 10
29.4112
 20
7.37999
 11
29.2089
 21
9
  0
LINE
  8
0
 10
29.2089
 20
9
 11
28.9625
 21
10.8
  0
LINE
  8
0
 10
28.9625
 20
10.8
 11
28.6674
 21
12.78
  0
LINE
  8
0
 10
28.6674
 20
12.78
 11
28.3191
 21
14.94
  0
LINE
  8
0
 10
28.3191
 20
14.94
 11
27.9453
 21
17.1
  0
LINE
  8
0
 10
27.9453
 20
17.1
 11
27.5132
 21
19.44
  0
LINE
  8
0
 10
27.5132
 20
19.44
 11
27.0181
 21
21.96
  0
LINE
  8
0
 10
27.0181
 20
21.96
 11
26.455
 21
24.66
  0
LINE
  8
0
 10
26.455
 20
24.66
 11
25.8594
 21
27.36
  0
LINE
  8
0
 10
25.8594
 20
27.36
 11
25.2323
 21
30.06
  0
LINE
  8
0
 10
25.2323
 20
30.06
 11
24.5294
 21
32.94
  0
LINE
  8
0
 10
24.5294
 20
32.94
 11
23.7922
 21
35.82
  0
LINE
  8
0
 10
23.7922
 20
35.82
 11
23.0207
 21
38.7
  0
LINE
  8
0
 10
23.0207
 20
38.7
 11
22.2149
 21
41.58
  0
LINE
  8
0
 10
22.2149
 20
41.58
 11
21.3746
 21
44.46
  0
LINE
  8
0
 10
21.3746
 20
44.46
 11
20.4993
 21
47.34
  0
LINE
  8
0
 10
20.4993
 20
47.34
 11
19.6459
 21
50.04
  0
LINE
  8
0
 10
19.6459
 20
50.04
 11
18.76
 21
52.74
  0
LINE
  8
0
 10
18.76
 20
52.74
 11
17.9027
 21
55.26
  0
LINE
  8
0
 10
17.9027
 20
55.26
 11
17.0145
 21
57.78
  0
LINE
  8
0
 10
17.0145
 20
57.78
 11
16.1608
 21
60.12
  0
LINE
  8
0
 10
16.1608
 20
60.12
 11
15.3466
 21
62.28
  0
LINE
  8
0
 10
15.3466
 20
62.28
 11
14.5056
 21
64.44
  0
LINE
  8
0
 10
14.5056
 20
64.44
 11
13.7096
 21
66.42
  0
LINE
  8
0
 10
13.7096
 20
66.42
 11
12.9636
 21
68.22
  0
LINE
  8
0
 10
12.9636
 20
68.22
 11
12.1946
 21
70.02
  0
LINE
  8
0
 10
12.1946
 20
70.02
 11
11.4813
 21
71.64
  0
LINE
  8
0
 10
11.4813
 20
71.64
 11
10.8289
 21
73.08
  0
LINE
  8
0
 10
10.8289
 20
73.08
 11
10.1577
 21
74.52
  0
LINE
  8
0
 10
10.1577
 20
74.52
 11
9.55362
 21
75.78
  0
LINE
  8
0
 10
9.55362
 20
75.78
 11
9.02213
 21
76.86
  0
LINE
  8
0
 10
9.02213
 20
76.86
 11
8.47685
 21
77.94
  0
LINE
  8
0
 10
8.47685
 20
77.94
 11
8.01096
 21
78.84
  0
LINE
  8
0
 10
8.01096
 20
78.84
 11
7.53362
 21
79.74
  0
LINE
  8
0
 10
7.53362
 20
79.74
 11
7.04372
 21
80.64
  0
LINE
  8
0
 10
7.04372
 20
80.64
 11
6.64183
 21
81.36
  0
LINE
  8
0
 10
6.64183
 20
81.36
 11
6.23019
 21
82.08
  0
LINE
  8
0
 10
6.23019
 20
82.08
 11
5.80775
 21
82.8
  0
LINE
  8
0
 10
5.80775
 20
82.8
 11
5.48311
 21
83.34
  0
LINE
  8
0
 10
5.48311
 20
83.34
 11
5.15103
 21
83.88
  0
LINE
  8
0
 10
5.15103
 20
83.88
 11
4.81078
 21
84.42
  0
LINE
  8
0
 10
4.81078
 20
84.42
 11
4.46138
 21
84.96
  0
LINE
  8
0
 10
4.46138
 20
84.96
 11
4.22279
 21
85.32
  0
LINE
  8
0
 10
4.22279
 20
85.32
 11
3.97922
 21
85.68
  0
LINE
  8
0
 10
3.97922
 20
85.68
 11
3.73015
 21
86.04
  0
LINE
  8
0
 10
3.73015
 20
86.04
 11
3.47496
 21
86.4
  0
LINE
  8
0
 10
3.47496
 20
86.4
 11
3.21291
 21
86.76
  0
LINE
  8
0
 10
3.21291
 20
86.76
 11
2.94307
 21
87.12
  0
LINE
  8
0
 10
2.94307
 20
87.12
 11
2.66423
 21
87.48
  0
LINE
  8
0
 10
2.66423
 20
87.48
 11
2.52097
 21
87.66
  0
LINE
  8
0
 10
2.52097
 20
87.66
 11
2.3748
 21
87.84
  0
LINE
  8
0
 10
2.3748
 20
87.84
 11
2.22545
 21
88.02
  0
LINE
  8
0
 10
2.22545
 20
88.02
 11
2.07256
 21
88.2
  0
LINE
  8
0
 10
2.07256
 20
88.2
 11
1.91566
 21
88.38
  0
LINE
  8
0
 10
1.91566
 20
88.38
 11
1.75423
 21
88.56
  0
LINE
  8
0
 10
1.75423
 20
88.56
 11
1.58754
 21
88.74
  0
LINE
  8
0
 10
1.58754
 20
88.74
 11
1.41464
 21
88.92
  0
LINE
  8
0
 10
1.41464
 20
88.92
 11
1.23421
 21
89.1
  0
LINE
  8
0
 10
1.23421
 20
89.1
 11
1.04433
 21
89.28
  0
LINE
  8
0
 10
1.04433
 20
89.28
 11
0.841904
 21
89.46
  0
LINE
  8
0
 10
0.841904
 20
89.46
 11
0.621338
 21
89.64
  0
LINE
  8
0
 10
0.621338
 20
89.64
 11
0.369553
 21
89.82
  0
LINE
  8
0
 10
0.369553
 20
89.82
 11
0
 21
90
  0
LINE
  8
0
 10
0
 20
90
 11
0
 21
0
  0
LINE
  8
0
 10
0
 20
0
 11
30
 21
0
  0
ENDSEC
  0
SECTION
  2
OBJECTS
  0
DICTIONARY
  0
ENDSEC
  0
EOF
