  0
SECTION
  2
BLOCKS
  0
ENDSEC
  0
SECTION
  2
ENTITIES
  0
LINE
  8
0
 10
29.991
 20
0.449997
 11
29.9746
 21
0.899994
  0
LINE
  8
0
 10
29.9746
 20
0.899994
 11
29.9534
 21
1.34999
  0
LINE
  8
0
 10
29.9534
 20
1.34999
 11
29.9283
 21
1.79999
  0
LINE
  8
0
 10
29.9283
 20
1.79999
 11
29.8999
 21
2.25
  0
LINE
  8
0
 10
29.8999
 20
2.25
 11
29.8686
 21
2.7
  0
LINE
  8
0
 10
29.8686
 20
2.7
 11
29.8346
 21
3.14999
  0
LINE
  8
0
 10
29.8346
 20
3.14999
 11
29.798
 21
3.59999
  0
LINE
  8
0
 10
29.798
 20
3.59999
 11
29.7592
 21
4.04999
  0
LINE
  8
0
 10
29.7592
 20
4.04999
 11
29.7183
 21
4.5
  0
LINE
  8
0
 10
29.7183
 20
4.5
 11
29.6303
 21
5.39999
  0
LINE
  8
0
 10
29.6303
 20
5.39999
 11
29.5348
 21
6.29999
  0
LINE
  8
0
 10
29.5348
 20
6.29999
 11
29.4324
 21
7.2
  0
LINE
  8
0
 10
29.4324
 20
7.2
 11
29.3237
 21
8.09999
  0
LINE
  8
0
 10
29.3237
 20
8.09999
 11
29.2089
 21
9
  0
LINE
  8
0
 10
29.2089
 20
9
 11
29.0884
 21
9.89999
  0
LINE
  8
0
 10
29.0884
 20
9.89999
 11
28.9625
 21
10.8
  0
LINE
  8
0
 10
28.9625
 20
10.8
 11
28.8313
 21
11.7
  0
LINE
  8
0
 10
28.8313
 20
11.7
 11
28.6952
 21
12.6
  0
LINE
  8
0
 10
28.6952
 20
12.6
 11
28.5543
 21
13.5
  0
LINE
  8
0
 10
28.5543
 20
13.5
 11
28.4087
 21
14.4
  0
LINE
  8
0
 10
28.4087
 20
14.4
 11
28.2585
 21
15.3
  0
LINE
  8
0
 10
28.2585
 20
15.3
 11
28.104
 21
16.2
  0
LINE
  8
0
 10
28.104
 20
16.2
 11
27.9453
 21
17.1
  0
LINE
  8
0
 10
27.9453
 20
17.1
 11
27.7823
 21
18
  0
LINE
  8
0
 10
27.7823
 20
18
 11
27.5303
 21
19.35
  0
LINE
  8
0
 10
27.5303
 20
19.35
 11
27.2694
 21
20.7
  0
LINE
  8
0
 10
27.2694
 20
20.7
 11
26.9999
 21
22.05
  0
LINE
  8
0
 10
26.9999
 20
22.05
 11
26.7219
 21
23.4
  0
LINE
  8
0
 10
26.7219
 20
23.4
 11
26.4356
 21
24.75
  0
LINE
  8
0
 10
26.4356
 20
24.75
 11
26.1413
 21
26.1
  0
LINE
  8
0
 10
26.1413
 20
26.1
 11
25.839
 21
27.45
  0
LINE
  8
0
 10
25.839
 20
27.45
 11
25.5288
 21
28.8
  0
LINE
  8
0
 10
25.5288
 20
28.8
 11
25.2108
 21
30.15
  0
LINE
  8
0
 10
25.2108
 20
30.15
 11
24.8852
 21
31.5
  0
LINE
  8
0
 10
24.8852
 20
31.5
 11
24.5519
 21
32.85
  0
LINE
  8
0
 10
24.5519
 20
32.85
 11
24.2111
 21
34.2
  0
LINE
  8
0
 10
24.2111
 20
34.2
 11
23.8627
 21
35.55
  0
LINE
  8
0
 10
23.8627
 20
35.55
 11
23.5069
 21
36.9
  0
LINE
  8
0
 10
23.5069
 20
36.9
 11
23.1435
 21
38.25
  0
LINE
  8
0
 10
23.1435
 20
38.25
 11
22.7726
 21
39.6
  0
LINE
  8
0
 10
22.7726
 20
39.6
 11
22.3941
 21
40.95
  0
LINE
  8
0
 10
22.3941
 20
40.95
 11
22.0081
 21
42.3
  0
LINE
  8
0
 10
22.0081
 20
42.3
 11
21.6145
 21
43.65
  0
LINE
  8
0
 10
21.6145
 20
43.65
 11
21.2132
 21
45
  0
LINE
  8
0
 10
21.2132
 20
45
 11
20.8042
 21
46.35
  0
LINE
  8
0
 10
20.8042
 20
46.35
 11
20.3873
 21
47.7
  0
LINE
  8
0
 10
20.3873
 20
47.7
 11
19.9625
 21
49.05
  0
LINE
  8
0
 10
19.9625
 20
49.05
 11
19.5297
 21
50.4
  0
LINE
  8
0
 10
19.5297
 20
50.4
 11
19.0887
 21
51.75
  0
LINE
  8
0
 10
19.0887
 20
51.75
 11
18.6394
 21
53.1
  0
LINE
  8
0
 10
18.6394
 20
53.1
 11
18.1815
 21
54.45
  0
LINE
  8
0
 10
18.1815
 20
54.45
 11
17.715
 21
55.8
  0
LINE
  8
0
 10
17.715
 20
55.8
 11
17.2395
 21
57.15
  0
LINE
  8
0
 10
17.2395
 20
57.15
 11
16.7549
 21
58.5
  0
LINE
  8
0
 10
16.7549
 20
58.5
 11
16.4266
 21
59.4
  0
LINE
  8
0
 10
16.4266
 20
59.4
 11
16.0939
 21
60.3
  0
LINE
  8
0
 10
16.0939
 20
60.3
 11
15.7569
 21
61.2
  0
LINE
  8
0
 10
15.7569
 20
61.2
 11
15.4154
 21
62.1
  0
LINE
  8
0
 10
15.4154
 20
62.1
 11
15.0693
 21
63
  0
LINE
  8
0
 10
15.0693
 20
63
 11
14.7184
 21
63.9
  0
LINE
  8
0
 10
14.7184
 20
63.9
 11
14.3627
 21
64.8
  0
LINE
  8
0
 10
14.3627
 20
64.8
 11
14.0019
 21
65.7
  0
LINE
  8
0
 10
14.0019
 20
65.7
 11
13.636
 21
66.6
  0
LINE
  8
0
 10
13.636
 20
66.6
 11
13.2646
 21
67.5
  0
LINE
  8
0
 10
13.2646
 20
67.5
 11
12.8878
 21
68.4
  0
LINE
  8
0
 10
12.8878
 20
68.4
 11
12.5051
 21
69.3
  0
LINE
  8
0
 10
12.5051
 20
69.3
 11
12.1164
 21
70.2
  0
LINE
  8
0
 10
12.1164
 20
70.2
 11
11.7215
 21
71.1
  0
LINE
  8
0
 10
11.7215
 20
71.1
 11
11.3199
 21
72
  0
LINE
  8
0
 10
11.3199
 20
72
 11
10.9115
 21
72.9
  0
LINE
  8
0
 10
10.9115
 20
72.9
 11
10.4958
 21
73.8
  0
LINE
  8
0
 10
10.4958
 20
73.8
 11
10.0724
 21
74.7
  0
LINE
  8
0
 10
10.0724
 20
74.7
 11
9.64095
 21
75.6
  0
LINE
  8
0
 10
9.64095
 20
75.6
 11
9.20076
 21
76.5
  0
LINE
  8
0
 10
9.20076
 20
76.5
 11
8.97723
 21
76.95
  0
LINE
  8
0
 10
8.97723
 20
76.95
 11
8.75128
 21
77.4
  0
LINE
  8
0
 10
8.75128
 20
77.4
 11
8.52284
 21
77.85
  0
LINE
  8
0
 10
8.52284
 20
77.85
 11
8.29179
 21
78.3
  0
LINE
  8
0
 10
8.29179
 20
78.3
 11
8.05804
 21
78.75
  0
LINE
  8
0
 10
8.05804
 20
78.75
 11
7.82144
 21
79.2
  0
LINE
  8
0
 10
7.82144
 20
79.2
 11
7.58189
 21
79.65
  0
LINE
  8
0
 10
7.58189
 20
79.65
 11
7.33923
 21
80.1
  0
LINE
  8
0
 10
7.33923
 20
80.1
 11
7.09331
 21
80.55
  0
LINE
  8
0
 10
7.09331
 20
80.55
 11
6.84393
 21
81
  0
LINE
  8
0
 10
6.84393
 20
81
 11
6.59093
 21
81.45
  0
LINE
  8
0
 10
6.59093
 20
81.45
 11
6.33408
 21
81.9
  0
LINE
  8
0
 10
6.33408
 20
81.9
 11
6.0731
 21
82.35
  0
LINE
  8
0
 10
6.0731
 20
82.35
 11
5.80775
 21
82.8
  0
LINE
  8
0
 10
5.80775
 20
82.8
 11
5.53772
 21
83.25
  0
LINE
  8
0
 10
5.53772
 20
83.25
 11
5.2626
 21
83.7
  0
LINE
  8
0
 10
5.2626
 20
83.7
 11
4.98198
 21
84.15
  0
LINE
  8
0
 10
4.98198
 20
84.15
 11
4.69537
 21
84.6
  0
LINE
  8
0
 10
4.69537
 20
84.6
 11
4.40218
 21
85.05
  0
LINE
  8
0
 10
4.40218
 20
85.05
 11
4.10167
 21
85.5
  0
LINE
  8
0
 10
4.10167
 20
85.5
 11
3.79297
 21
85.95
  0
LINE
  8
0
 10
3.79297
 20
85.95
 11
3.47496
 21
86.4
  0
LINE
  8
0
 10
3.47496
 20
86.4
 11
3.14622
 21
86.85
  0
LINE
  8
0
 10
3.14622
 20
86.85
 11
2.80486
 21
87.3
  0
LINE
  8
0
 10
2.80486
 20
87.3
 11
2.44826
 21
87.75
  0
LINE
  8
0
 10
2.44826
 20
87.75
 11
2.07256
 21
88.2
  0
LINE
  8
0
 10
2.07256
 20
88.2
 11
1.67159
 21
88.65
  0
LINE
  8
0
 10
1.67159
 20
88.65
 11
1.23421
 21
89.1
  0
LINE
  8
0
 10
1.23421
 20
89.1
 11
0.734421
 21
89.55
  0
LINE
  8
0
 10
0.734421
 20
89.55
 11
0
 21
90
  0
LINE
  8
0
 10
0
 20
90
 11
0
 21
0
  0
LINE
  8
0
 10
0
 20
0
 11
30
 21
0
  0
LINE
  8
0
 10
30
 20
0
 11
29.991
 21
0.449997
  0
ENDSEC
  0
SECTION
  2
OBJECTS
  0
DICTIONARY
  0
ENDSEC
  0
EOF
