  0
SECTION
  2
BLOCKS
  0
ENDSEC
  0
SECTION
  2
ENTITIES
  0
LINE
  8
0
 10
30
 20
0
 11
29.9851
 21
0.62999
  0
LINE
  8
0
 10
29.9851
 20
0.62999
 11
29.9229
 21
1.89
  0
LINE
  8
0
 10
29.9229
 20
1.89
 11
29.7905
 21
3.68999
  0
LINE
  8
0
 10
29.7905
 20
3.68999
 11
29.5545
 21
6.12
  0
LINE
  8
0
 10
29.5545
 20
6.12
 11
29.1852
 21
9.17999
  0
LINE
  8
0
 10
29.1852
 20
9.17999
 11
28.6534
 21
12.87
  0
LINE
  8
0
 10
28.6534
 20
12.87
 11
27.9453
 21
17.1
  0
LINE
  8
0
 10
27.9453
 20
17.1
 11
27.0363
 21
21.87
  0
LINE
  8
0
 10
27.0363
 20
21.87
 11
25.9406
 21
27
  0
LINE
  8
0
 10
25.9406
 20
27
 11
24.6639
 21
32.4
  0
LINE
  8
0
 10
24.6639
 20
32.4
 11
23.2168
 21
37.98
  0
LINE
  8
0
 10
23.2168
 20
37.98
 11
21.641
 21
43.56
  0
LINE
  8
0
 10
21.641
 20
43.56
 11
19.9911
 21
48.96
  0
LINE
  8
0
 10
19.9911
 20
48.96
 11
18.3045
 21
54.09
  0
LINE
  8
0
 10
18.3045
 20
54.09
 11
16.6241
 21
58.86
  0
LINE
  8
0
 10
16.6241
 20
58.86
 11
15.0344
 21
63.09
  0
LINE
  8
0
 10
15.0344
 20
63.09
 11
13.5251
 21
66.87
  0
LINE
  8
0
 10
13.5251
 20
66.87
 11
12.1164
 21
70.2
  0
LINE
  8
0
 10
12.1164
 20
70.2
 11
10.8289
 21
73.08
  0
LINE
  8
0
 10
10.8289
 20
73.08
 11
9.68448
 21
75.51
  0
LINE
  8
0
 10
9.68448
 20
75.51
 11
8.61453
 21
77.67
  0
LINE
  8
0
 10
8.61453
 20
77.67
 11
7.67809
 21
79.47
  0
LINE
  8
0
 10
7.67809
 20
79.47
 11
6.84393
 21
81
  0
LINE
  8
0
 10
6.84393
 20
81
 11
6.0731
 21
82.35
  0
LINE
  8
0
 10
6.0731
 20
82.35
 11
5.4283
 21
83.43
  0
LINE
  8
0
 10
5.4283
 20
83.43
 11
4.81078
 21
84.42
  0
LINE
  8
0
 10
4.81078
 20
84.42
 11
4.2829
 21
85.23
  0
LINE
  8
0
 10
4.2829
 20
85.23
 11
3.79297
 21
85.95
  0
LINE
  8
0
 10
3.79297
 20
85.95
 11
3.41011
 21
86.49
  0
LINE
  8
0
 10
3.41011
 20
86.49
 11
3.01132
 21
87.03
  0
LINE
  8
0
 10
3.01132
 20
87.03
 11
2.66423
 21
87.48
  0
LINE
  8
0
 10
2.66423
 20
87.48
 11
2.3748
 21
87.84
  0
LINE
  8
0
 10
2.3748
 20
87.84
 11
2.14948
 21
88.11
  0
LINE
  8
0
 10
2.14948
 20
88.11
 11
1.91566
 21
88.38
  0
LINE
  8
0
 10
1.91566
 20
88.38
 11
1.67159
 21
88.65
  0
LINE
  8
0
 10
1.67159
 20
88.65
 11
1.50194
 21
88.83
  0
LINE
  8
0
 10
1.50194
 20
88.83
 11
1.32547
 21
89.01
  0
LINE
  8
0
 10
1.32547
 20
89.01
 11
1.14061
 21
89.19
  0
LINE
  8
0
 10
1.14061
 20
89.19
 11
1.04433
 21
89.28
  0
LINE
  8
0
 10
1.04433
 20
89.28
 11
0.944946
 21
89.37
  0
LINE
  8
0
 10
0.944946
 20
89.37
 11
0.841904
 21
89.46
  0
LINE
  8
0
 10
0.841904
 20
89.46
 11
0.734421
 21
89.55
  0
LINE
  8
0
 10
0.734421
 20
89.55
 11
0.621338
 21
89.64
  0
LINE
  8
0
 10
0.621338
 20
89.64
 11
0.500824
 21
89.73
  0
LINE
  8
0
 10
0.500824
 20
89.73
 11
0.369553
 21
89.82
  0
LINE
  8
0
 10
0.369553
 20
89.82
 11
0.219772
 21
89.91
  0
LINE
  8
0
 10
0.219772
 20
89.91
 11
0
 21
90
  0
LINE
  8
0
 10
0
 20
90
 11
0
 21
0
  0
LINE
  8
0
 10
0
 20
0
 11
30
 21
0
  0
ENDSEC
  0
SECTION
  2
OBJECTS
  0
DICTIONARY
  0
ENDSEC
  0
EOF
